<svg id="Layer_1" data-name="Layer 1" xmlns="http://www.w3.org/2000/svg" xmlns:xlink="http://www.w3.org/1999/xlink" viewBox="0 0 32 32"><defs><style>.cls-1{fill:none;}.cls-2{clip-path:url(#clip-path);}.cls-3{fill:#fff;}.cls-4{fill:#424156;}</style><clipPath id="clip-path"><rect class="cls-1" width="32" height="32"/></clipPath></defs><title>Multimovie</title><g class="cls-2"><circle class="cls-3" cx="16" cy="16" r="14"/><path class="cls-4" d="M21.11,13.2l-2.75,2.74L21,18.61a.77.77,0,0,1,0,1.09l-1.35,1.35a.77.77,0,0,1-1.09,0l-2.67-2.67L13.2,21.11a.77.77,0,0,1-1.09,0l-1.22-1.22a.77.77,0,0,1,0-1.09l2.73-2.72L11,13.41a.77.77,0,0,1,0-1.09L12.3,11a.77.77,0,0,1,1.09,0l2.67,2.67,2.74-2.75a.77.77,0,0,1,1.09,0l1.22,1.22A.77.77,0,0,1,21.11,13.2Z"/></g></svg>